<svg version="1.1" xmlns="http://www.w3.org/2000/svg" width="50" height="50">
    <path d="M0 0 C16.5 0 33 0 50 0 C50 16.5 50 33 50 50 C33.5 50 17 50 0 50 C0 33.5 0 17 0 0 Z " fill="#222222" transform="translate(0,0)"/>
    <path d="M0 0 C1.98 0 3.96 0 6 0 C7.65 5.61 9.3 11.22 11 17 C12.79528426 11.30192387 14.35459949 5.93768465 15 0 C16.98 0 18.96 0 21 0 C21.12117188 0.73605469 21.24234375 1.47210938 21.3671875 2.23046875 C21.53476562 3.20628906 21.70234375 4.18210937 21.875 5.1875 C22.11863281 6.63189453 22.11863281 6.63189453 22.3671875 8.10546875 C23.00829419 11.41832084 23.00829419 11.41832084 25 16 C26.32 10.72 27.64 5.44 29 0 C30.98 0 32.96 0 35 0 C33.21277243 8.52370072 30.81889255 16.76016023 28 25 C26.02 25 24.04 25 22 25 C20.26436339 20.54771478 18.94389853 16.71949266 18 12 C16.68 16.29 15.36 20.58 14 25 C11.69 25 9.38 25 7 25 C6.74605469 24.03320312 6.49210938 23.06640625 6.23046875 22.0703125 C4.27819946 14.67319079 2.26967361 7.30766124 0 0 Z " fill="#DADADA" transform="translate(4,14)"/>
    <path d="M0 0 C1.98 0 3.96 0 6 0 C6.33773438 1.21558594 6.67546875 2.43117188 7.0234375 3.68359375 C7.47354484 5.26834667 7.92408823 6.85297578 8.375 8.4375 C8.59671875 9.23994141 8.8184375 10.04238281 9.046875 10.86914062 C9.37558594 12.01479492 9.37558594 12.01479492 9.7109375 13.18359375 C10.00943604 14.24404907 10.00943604 14.24404907 10.31396484 15.32592773 C10.87161977 17.20999627 10.87161977 17.20999627 13 18 C13.12375 17.195625 13.2475 16.39125 13.375 15.5625 C13.58125 14.716875 13.7875 13.87125 14 13 C14.66 12.67 15.32 12.34 16 12 C16.19294408 16.82360189 15.75747614 20.49646738 14 25 C11.69 25 9.38 25 7 25 C6.74605469 24.03320312 6.49210938 23.06640625 6.23046875 22.0703125 C4.27819946 14.67319079 2.26967361 7.30766124 0 0 Z " fill="#DEDEDE" transform="translate(4,14)"/>
    <path d="M0 0 C1.65 0 3.3 0 5 0 C5 1.65 5 3.3 5 5 C3.35 5 1.7 5 0 5 C0 3.35 0 1.7 0 0 Z " fill="#F0B254" transform="translate(43,34)"/>
    <path d="M0 0 C0.33 0 0.66 0 1 0 C1 2.31 1 4.62 1 7 C-0.32 7.33 -1.64 7.66 -3 8 C-1.125 1.125 -1.125 1.125 0 0 Z " fill="#F3F3F3" transform="translate(19,26)"/>
</svg>
